<svg xmlns="http://www.w3.org/2000/svg" class="pagina-categoria__svg--home categories__svg--home" style="fill:#9cd33b" xmlns:xlink="http://www.w3.org/1999/xlink" width="22"  height="21" ><defs><symbol id="icon-categorias-data-science" viewBox="0 0 22 21"><path d="M3.84.523c-.96-.038-1.9.205-2.53.887C.679 2.09.505 3.04.609 4c.105.97.471 2 1.03 3.12.52 1.02 1.23 2.1 2.06 3.18-.84 1.1-1.54 2.2-2.06 3.2-.56 1.1-.928 2.2-1.03 3.1-.107 1 .065 2 .7 2.6.63.7 1.56 1 2.53.9.97 0 2.02-.3 3.17-.8 1.2-.5 2.49-1.3 3.79-2.2 1.3.9 2.6 1.7 3.8 2.2s2.2.8 3.2.8c1 .1 1.9-.2 2.5-.9.7-.6.8-1.6.7-2.6-.1-.9-.4-2-1-3.1-.5-1-1.2-2.1-2.1-3.2.9-1.08 1.6-2.16 2.1-3.18.6-1.12.9-2.15 1-3.12.1-.96 0-1.91-.7-2.59-.6-.682-1.5-.925-2.5-.887-1 .039-2 .332-3.2.817-1.2.51-2.5 1.26-3.8 2.18-1.3-.92-2.59-1.67-3.79-2.18-1.15-.485-2.21-.778-3.17-.817zm-.07 1.7c.66.03 1.56.25 2.57.69.93.39 1.96.97 3.04 1.69-.73.57-1.45 1.17-2.16 1.84-.88.83-1.67 1.68-2.4 2.52-.67-.91-1.25-1.8-1.66-2.61-.5-.99-.79-1.87-.86-2.53s.05-1.04.26-1.26c.2-.21.56-.36 1.21-.34zm14.1 0c.6-.02 1 .13 1.2.34.2.22.3.6.2 1.26 0 .66-.3 1.54-.8 2.53-.4.81-1 1.7-1.7 2.61-.7-.84-1.5-1.69-2.4-2.52-.7-.67-1.4-1.27-2.1-1.84 1-.72 2.1-1.3 3-1.69 1-.44 1.9-.66 2.6-.69zm-7.1 3.42c.8.62 1.7 1.28 2.5 2.04.9.87 1.7 1.76 2.4 2.62-.7.9-1.5 1.8-2.4 2.7-.8.7-1.7 1.4-2.5 2-.8-.6-1.61-1.3-2.42-2h-.01c-.92-.9-1.73-1.8-2.47-2.7.74-.86 1.55-1.75 2.48-2.62.81-.76 1.62-1.42 2.42-2.04zM9.3 8.503a.46.46 0 0 0-.46.46v1.14h3.93V8.913v.02a.46.46 0 0 0-.5-.43H9.3zm-.41 2v.1h-.05.05v1a.46.46 0 0 0 .46.5h3.02a.46.46 0 0 0 .4-.5v-1.1H8.89zm-4.1 1.2c.73.8 1.52 1.7 2.4 2.5a.85.85 0 0 0 .09.1c.68.6 1.38 1.2 2.07 1.7-1.07.8-2.11 1.3-3.04 1.7-1.01.5-1.91.7-2.57.7s-1.01-.1-1.22-.3c-.2-.2-.32-.6-.25-1.3.07-.6.36-1.5.86-2.5.41-.8.99-1.7 1.66-2.6zm12 0c.7.9 1.3 1.8 1.7 2.6.5 1 .8 1.9.8 2.5.1.7 0 1.1-.2 1.3s-.6.3-1.2.3c-.7 0-1.6-.2-2.6-.7-.9-.4-2-.9-3-1.7.7-.5 1.3-1.1 2-1.7a.85.85 0 0 0 .1-.1c.9-.8 1.7-1.7 2.4-2.5z"></path></symbol></defs>
<use xlink:href="#icon-categorias-data-science" fill="#9CD33B"></use>
</svg>