<svg xmlns="http://www.w3.org/2000/svg" class="pagina-categoria__svg--home categories__svg--home" style="fill:#7b71ff" xmlns:xlink="http://www.w3.org/1999/xlink" width="25"  height="25" ><defs><symbol id="icon-categorias-inteligencia-artificial" viewBox="0 0 25 25"><path d="M19.612 0H5.388A5.394 5.394 0 0 0 0 5.388v14.224A5.394 5.394 0 0 0 5.388 25h14.224A5.394 5.394 0 0 0 25 19.612V5.388A5.394 5.394 0 0 0 19.612 0Zm3.126 19.612a3.129 3.129 0 0 1-3.126 3.126H5.388a3.129 3.129 0 0 1-3.126-3.126v-6.106h.798a2.8 2.8 0 0 0 2.61 1.79 2.77 2.77 0 0 0 1.133-.24l1.396 1.396a2.776 2.776 0 0 0 .124 2.515 2.78 2.78 0 0 0 1.689 1.315 2.78 2.78 0 0 0 2.124-.264 2.78 2.78 0 0 0 1.315-1.688 2.8 2.8 0 0 0-1.952-3.44 2.784 2.784 0 0 0-1.877.141l-1.397-1.397a2.782 2.782 0 0 0 0-2.268L9.62 9.97a2.867 2.867 0 0 0 1.134.24c1.138 0 2.19-.7 2.61-1.79h2.001c.05.127.11.252.179.375a2.806 2.806 0 0 0 2.436 1.417c.478 0 .95-.123 1.377-.366a2.78 2.78 0 0 0 1.315-1.688 2.8 2.8 0 0 0-1.952-3.44 2.8 2.8 0 0 0-3.353 1.691h-2.004a2.793 2.793 0 0 0-1.865-1.69A2.8 2.8 0 0 0 8.06 6.67a2.774 2.774 0 0 0 .14 1.878L6.803 9.945a2.8 2.8 0 0 0-3.742 1.55h-.799V5.388a3.129 3.129 0 0 1 3.126-3.126h14.224a3.129 3.129 0 0 1 3.126 3.126v14.224ZM6.706 12.5a1.038 1.038 0 0 1-2.074 0 1.038 1.038 0 0 1 2.074 0Zm3.537 4.184a1.03 1.03 0 0 1 .788-.098 1.039 1.039 0 0 1 .237 1.902 1.032 1.032 0 0 1-1.414-.39 1.032 1.032 0 0 1-.098-.787 1.03 1.03 0 0 1 .487-.627Zm-.488-9.546a1.039 1.039 0 0 1 1.276-.724 1.039 1.039 0 0 1-.552 2 1.033 1.033 0 0 1-.724-1.276Zm7.222 0a1.039 1.039 0 0 1 1.275-.724 1.039 1.039 0 0 1 .237 1.902c-.24.137-.52.171-.788.098a1.032 1.032 0 0 1-.626-.487 1.031 1.031 0 0 1-.098-.789Z"></path></symbol></defs>
<use xlink:href="#icon-categorias-inteligencia-artificial" fill="#7B71FF"></use>
</svg>